# xmcd
#
# Track frame offsets: 
#        150
#        14850
#        37179
#        48942
#        63705
#        76130
#        90282
#        105692
#        127543
#        150953
#        172170
#        186904
#        196762
#        216623
#        228285
#
# Disc length: 3405 seconds
#
# Revision: 0
# Processed by: cddbd v1.5.1PL0 Copyright (c) Steve Scherf et al.
# Submitted via: ExactAudioCopy v0.95a5
#
DISCID=c40d4b0f
DTITLE=Nasta Super - Van A Pagar
DYEAR=2004
DGENRE=Blues
TTITLE0=Green Light
TTITLE1=Georgia
TTITLE2=Colgado En Tu Recuerdo
TTITLE3=Mambo En La Cabeza
TTITLE4=Hipology
TTITLE5=Tema Para Ronnie
TTITLE6=Van A Pagar
TTITLE7=Todo El Día Me Pregunto
TTITLE8=Killer Joe
TTITLE9=Tema Para Mi Strat
TTITLE10=Adiós Nicolás
TTITLE11=Corrupto
TTITLE12=Sidetrack
TTITLE13=Tema Para Marta
TTITLE14=Churchin
EXTD=
EXTT0=
EXTT1=
EXTT2=
EXTT3=
EXTT4=
EXTT5=
EXTT6=
EXTT7=
EXTT8=
EXTT9=
EXTT10=
EXTT11=
EXTT12=
EXTT13=
EXTT14=
PLAYORDER=
